<?xml version="1.0" standalone="no"?>
<!DOCTYPE svg PUBLIC "-//W3C//DTD SVG 20010904//EN"
 "http://www.w3.org/TR/2001/REC-SVG-20010904/DTD/svg10.dtd">
<svg version="1.0" xmlns="http://www.w3.org/2000/svg"
 width="1280.000000pt" height="640.000000pt" viewBox="0 0 1280.000000 640.000000"
 preserveAspectRatio="xMidYMid meet">
<metadata>
Created by potrace 1.15, written by Peter Selinger 2001-2017
</metadata>
<g transform="translate(0.000000,640.000000) scale(0.100000,-0.100000)"
fill="#ff3f34" stroke="none">
<path d="M5215 5505 c-379 -83 -669 -402 -692 -760 -13 -207 63 -441 207 -635
51 -69 79 -97 123 -125 26 -17 27 -17 27 4 0 11 -29 52 -66 93 -125 137 -200
279 -229 434 l-15 74 36 107 c56 173 140 297 219 323 70 23 123 -16 90 -66
-27 -42 -4 -72 29 -38 25 24 20 81 -9 110 -22 22 -31 24 -73 20 l-47 -6 35 17
c19 9 67 19 107 21 70 4 73 3 103 -26 39 -40 39 -71 -1 -148 -20 -37 -30 -67
-26 -78 6 -15 9 -16 38 -1 38 20 59 68 59 135 0 43 -5 55 -36 90 -20 22 -34
40 -30 40 19 0 101 -47 126 -71 46 -46 55 -88 40 -186 -10 -66 -10 -86 0 -98
17 -20 33 -19 54 4 47 52 40 160 -17 246 -24 38 -47 57 -97 83 -64 33 -66 34
-175 30 -95 -3 -117 -8 -161 -30 -94 -49 -157 -136 -251 -348 -11 -24 -12 -24
-12 12 -1 44 14 122 39 201 76 234 279 428 545 518 100 34 264 34 348 1 120
-49 212 -151 243 -271 28 -113 3 -163 -115 -225 -115 -60 -165 -139 -124 -195
15 -20 30 -27 64 -29 65 -5 111 13 159 60 104 104 147 283 102 420 -71 216
-355 351 -617 293z"/>
<path d="M2083 5385 c-27 -19 -46 -76 -38 -114 3 -16 17 -39 30 -51 21 -20 28
-22 50 -12 34 15 51 60 32 80 -13 12 -18 12 -39 -2 -30 -19 -38 -13 -38 29 0
41 27 65 73 65 46 0 84 -32 134 -113 58 -92 81 -153 118 -316 39 -168 79 -285
129 -376 l35 -63 -62 42 c-124 86 -213 97 -324 40 -44 -22 -62 -39 -80 -73
-66 -125 21 -279 142 -251 80 18 124 108 70 144 -32 21 -78 20 -98 -2 -10 -10
-17 -35 -17 -56 0 -33 -3 -37 -22 -34 -33 5 -68 63 -68 113 0 115 131 190 263
151 71 -21 89 -35 402 -319 222 -202 296 -251 670 -443 320 -164 389 -187 709
-232 l49 -7 -114 -38 c-148 -50 -340 -144 -510 -250 -486 -303 -813 -435
-1089 -439 -192 -3 -245 184 -67 237 34 10 55 12 67 5 10 -6 35 -10 54 -10 29
0 36 4 36 20 0 35 -33 43 -116 26 -83 -18 -119 -33 -151 -68 -48 -52 -51 -106
-6 -165 l24 -33 -88 31 c-48 17 -122 49 -163 71 -138 75 -179 119 -199 216
-27 129 50 225 181 226 52 1 60 -2 86 -30 36 -40 69 -51 89 -31 40 40 -30 90
-143 102 -120 14 -213 -36 -244 -131 -15 -44 -8 -131 14 -174 8 -17 11 -30 8
-30 -10 0 -163 157 -258 265 -103 117 -111 136 -95 230 29 174 38 188 206 292
34 21 44 50 21 59 -63 24 -177 -66 -216 -171 -12 -33 -29 -105 -37 -160 -8
-55 -16 -101 -17 -102 -1 -1 -31 12 -66 29 -51 25 -81 33 -143 36 -91 5 -139
-8 -272 -75 -165 -83 -209 -96 -315 -97 -84 0 -101 3 -145 26 -72 37 -136 111
-185 212 -35 72 -43 99 -47 164 -4 66 -1 82 16 110 22 34 75 72 101 72 8 0 1
-9 -17 -19 -36 -23 -49 -52 -33 -81 21 -40 97 -34 120 10 14 27 3 84 -21 106
-27 24 -83 23 -116 -2 -72 -54 -94 -133 -69 -254 46 -220 193 -366 381 -378
99 -6 159 9 300 78 119 58 175 79 175 65 0 -4 -20 -29 -44 -57 -57 -62 -68
-115 -38 -179 26 -56 39 -70 86 -103 90 -60 205 -9 206 92 0 44 -14 68 -50 87
-41 21 -67 19 -95 -9 -19 -19 -23 -30 -17 -47 10 -26 43 -41 63 -29 10 7 6 11
-15 19 -31 12 -31 27 0 48 18 12 24 11 47 -8 59 -45 20 -149 -55 -149 -34 0
-93 30 -115 59 -22 27 -43 82 -43 112 0 71 118 149 235 156 108 7 154 -21 278
-169 227 -270 442 -434 666 -507 76 -25 207 -51 265 -52 40 -1 40 -1 -19 -15
-87 -20 -379 -29 -505 -15 -230 25 -458 76 -805 181 -327 99 -389 112 -510
114 -60 0 -142 -3 -180 -8 -95 -11 -136 9 -200 99 -62 86 -87 105 -141 105
-59 0 -108 -41 -106 -90 1 -36 23 -66 41 -56 6 4 11 24 11 44 0 45 23 82 51
82 46 0 98 -43 158 -132 22 -34 46 -54 81 -70 28 -13 49 -26 48 -29 -2 -3 -58
-47 -125 -97 -188 -142 -259 -235 -299 -392 -32 -123 7 -220 89 -220 67 0 141
75 117 120 -18 34 -48 44 -76 25 -31 -20 -31 -43 1 -55 31 -12 32 -24 3 -44
-53 -37 -118 0 -118 68 0 44 26 141 55 204 46 100 167 233 280 308 48 32 233
109 241 101 2 -2 -22 -24 -54 -49 -89 -69 -166 -197 -186 -308 -7 -39 -6 -39
41 70 55 126 168 227 281 251 82 17 217 -2 405 -57 638 -186 829 -221 1177
-211 264 7 404 34 630 119 150 57 240 106 450 246 166 112 304 192 329 192 5
0 -22 -30 -61 -67 -89 -86 -167 -190 -360 -483 -219 -332 -322 -445 -461 -510
-121 -57 -218 -49 -247 19 -18 44 -6 89 40 150 44 59 48 84 12 89 -31 5 -88
-56 -103 -110 -14 -54 -5 -94 32 -143 25 -33 27 -41 14 -43 -21 -5 -92 33
-128 66 -41 38 -68 96 -74 157 -5 51 -4 54 36 97 43 47 49 66 29 86 -34 34
-101 -15 -114 -84 -14 -75 17 -179 75 -253 89 -113 284 -134 468 -51 110 50
186 134 448 490 314 428 480 610 559 610 14 0 26 -5 26 -10 0 -16 -34 -80
-117 -218 -394 -656 -786 -1064 -1263 -1315 -105 -56 -225 -107 -310 -133
-195 -59 -493 11 -577 136 -30 43 -31 127 -3 189 32 70 15 59 -20 -13 -28 -56
-32 -73 -28 -121 6 -72 45 -129 118 -173 77 -46 140 -63 255 -69 l100 -6 -55
-20 c-47 -17 -82 -20 -250 -21 -172 -1 -205 2 -279 22 -247 66 -392 201 -417
391 -5 38 -2 63 10 96 31 80 110 121 149 77 31 -34 15 -82 -26 -82 -16 0 -17
3 -7 15 13 16 6 35 -15 35 -18 0 -28 -30 -14 -46 14 -17 61 -18 77 -2 16 16
15 70 -1 92 -7 9 -29 21 -48 25 -143 32 -215 -163 -128 -346 108 -226 494
-356 871 -294 241 40 401 91 623 200 437 216 814 581 1191 1154 57 86 151 229
209 316 l104 159 113 55 c272 133 501 164 806 112 24 -4 32 -2 32 8 0 27 -29
39 -157 63 -103 20 -179 26 -393 33 -269 9 -461 29 -559 57 -124 36 -280 135
-330 210 -38 58 -43 127 -12 165 17 21 28 24 93 24 71 0 73 1 76 26 6 53 -84
87 -145 55 -98 -50 -116 -180 -39 -273 62 -75 65 -80 29 -55 -59 41 -159 160
-193 228 -26 53 -33 79 -33 128 0 71 16 109 67 154 48 42 92 48 197 29 133
-26 189 -19 189 22 0 25 -35 68 -70 86 -37 19 -152 20 -214 1 -103 -31 -180
-114 -192 -208 -10 -70 -21 -68 -29 6 -14 131 37 302 108 362 52 44 126 72
234 88 98 15 159 36 175 60 27 39 -19 110 -78 119 -19 3 -61 1 -92 -4 -92 -17
-160 -56 -242 -139 -114 -113 -152 -208 -152 -370 1 -149 43 -278 135 -412
l47 -68 -58 26 c-237 104 -585 385 -707 568 -71 108 -104 190 -176 435 -84
288 -154 423 -235 457 -44 18 -104 18 -131 -1z"/>
<path d="M7502 5171 c-159 -46 -300 -200 -346 -377 -42 -164 -28 -313 45 -464
46 -96 147 -252 208 -322 23 -26 37 -49 32 -52 -5 -4 -29 -2 -53 4 -91 21
-418 4 -418 -22 0 -10 -2 -10 150 -8 201 2 347 -40 502 -143 90 -59 211 -179
268 -264 28 -42 41 -53 63 -53 24 0 27 3 27 34 0 42 -50 106 -210 271 -59 61
-125 137 -147 170 -120 179 -173 357 -127 424 20 28 88 61 129 61 72 0 158
-68 170 -134 11 -59 -38 -137 -78 -123 -7 2 -12 22 -12 47 0 38 -4 46 -28 60
-25 14 -30 13 -65 -5 -54 -29 -55 -64 -4 -115 34 -34 46 -40 81 -40 88 0 141
58 141 151 0 76 -33 121 -118 160 -61 29 -140 28 -187 -1 -81 -50 -97 -162
-44 -310 49 -137 53 -150 45 -157 -4 -5 -41 27 -82 70 -179 186 -271 403 -219
518 16 34 56 69 80 69 3 0 25 -18 50 -41 51 -47 78 -48 83 -5 4 36 -39 83 -84
92 -37 7 -108 -21 -138 -54 -10 -12 -24 -45 -31 -74 l-12 -53 -8 68 c-18 165
44 307 146 332 58 15 109 -12 195 -101 87 -90 116 -103 135 -60 17 37 3 73
-49 125 -68 68 -130 94 -212 89 -50 -3 -74 -10 -105 -31 -79 -54 -74 -29 11
57 88 89 149 120 236 121 62 0 75 -4 177 -57 145 -76 191 -76 191 -2 0 61 -73
121 -185 150 -66 18 -127 16 -203 -5z"/>
<path d="M4055 5023 c-96 -26 -127 -43 -81 -43 42 0 83 -23 175 -100 46 -38
100 -75 119 -81 36 -12 99 -7 147 11 27 10 27 11 9 31 -22 24 -147 103 -188
119 -37 14 -27 24 16 16 30 -5 114 -50 192 -101 29 -19 29 -19 18 0 -22 42
-128 138 -170 156 -58 25 -127 23 -237 -8z"/>
<path d="M6163 4949 c-152 -29 -238 -200 -173 -345 25 -57 43 -79 90 -109 146
-93 344 -9 378 160 17 85 -14 183 -74 237 -56 48 -146 72 -221 57z m145 -104
c69 -41 94 -148 52 -223 -83 -148 -310 -86 -310 83 0 135 138 210 258 140z"/>
<path d="M6148 4814 c-78 -42 -76 -178 2 -219 90 -46 190 11 190 110 0 99
-104 158 -192 109z m95 -96 c8 -12 7 -21 -2 -32 -18 -22 -38 -20 -51 5 -22 40
29 66 53 27z"/>
<path d="M5485 4590 c-143 -16 -296 -96 -393 -205 -94 -106 -162 -282 -162
-421 0 -78 30 -196 71 -280 153 -313 540 -440 849 -278 128 67 217 159 280
289 46 96 60 159 60 270 0 111 -14 174 -60 270 -119 247 -374 387 -645 355z
m178 -195 c181 -47 308 -185 336 -365 46 -288 -214 -548 -501 -501 -93 15
-166 51 -236 116 -120 111 -168 272 -127 428 21 82 50 133 111 197 109 115
271 163 417 125z"/>
<path d="M5475 4337 c-118 -31 -206 -104 -258 -215 -28 -60 -32 -77 -32 -157
0 -80 4 -97 32 -157 113 -238 411 -299 601 -123 247 228 103 637 -232 660 -34
3 -83 -1 -111 -8z m163 -183 c108 -45 160 -167 113 -269 -71 -157 -288 -165
-369 -15 -34 64 -28 152 13 212 56 78 157 108 243 72z"/>
<path d="M2767 4540 c-26 -21 -75 -100 -61 -100 3 0 24 16 47 35 22 19 50 35
61 35 17 0 14 -5 -15 -24 -31 -21 -69 -65 -69 -80 0 -2 23 -7 50 -11 l50 -7
76 71 c42 39 83 71 92 71 12 0 13 3 5 11 -6 6 -55 13 -109 16 -91 5 -101 4
-127 -17z"/>
<path d="M6875 4386 c-91 -41 -131 -155 -86 -244 23 -46 46 -67 94 -87 123
-51 247 34 247 171 0 126 -137 212 -255 160z m145 -36 c43 -22 80 -80 80 -124
0 -64 -51 -130 -114 -147 -31 -8 -48 -7 -83 6 -126 48 -131 216 -8 271 43 19
80 17 125 -6z"/>
<path d="M6912 4258 c-30 -30 -2 -88 42 -88 29 0 46 18 46 50 0 14 -5 31 -12
38 -7 7 -24 12 -38 12 -14 0 -31 -5 -38 -12z"/>
<path d="M6294 4285 c-60 -31 -81 -103 -45 -161 51 -83 182 -59 205 38 20 84
-82 162 -160 123z m107 -44 c37 -38 38 -79 3 -115 -55 -55 -144 -18 -144 59 0
26 7 43 26 60 37 34 78 33 115 -4z"/>
<path d="M6326 4191 c-7 -11 18 -33 27 -24 4 3 7 12 7 20 0 15 -26 18 -34 4z"/>
<path d="M2635 4280 c-64 -9 -108 -32 -134 -69 -20 -28 -91 -200 -91 -220 0
-5 12 3 28 18 16 17 55 36 98 49 80 24 117 49 140 95 26 48 35 87 21 87 -18 0
-120 -49 -140 -67 -9 -9 -19 -14 -22 -11 -10 10 56 65 105 88 28 13 50 27 50
32 0 4 -1 7 -2 7 -2 -1 -26 -5 -53 -9z"/>
<path d="M3947 4141 c47 -34 73 -86 98 -199 36 -161 85 -221 214 -262 35 -11
65 -20 68 -20 24 0 -56 214 -103 276 l-34 45 29 -15 c55 -29 107 -109 146
-226 31 -89 38 -84 31 21 -15 226 -61 277 -329 364 -77 25 -144 45 -149 45 -6
0 7 -13 29 -29z"/>
<path d="M2884 4040 c-93 -71 -102 -126 -49 -295 28 -87 29 -89 35 -53 4 20
20 53 36 73 16 20 44 54 62 76 17 22 35 52 39 67 6 27 -11 110 -28 127 -14 14
-43 -19 -84 -95 -29 -55 -35 -61 -35 -37 0 29 27 90 62 140 11 16 18 30 16 32
-2 2 -26 -14 -54 -35z"/>
<path d="M900 4060 c0 -6 3 -10 8 -10 22 0 54 -75 67 -156 20 -123 30 -147 79
-192 46 -42 104 -77 113 -68 9 9 -28 146 -53 194 l-24 47 34 -38 c33 -37 52
-77 78 -167 l13 -45 3 80 c4 102 -14 151 -76 205 -54 48 -242 164 -242 150z"/>
<path d="M6320 4024 c-75 -14 -70 -8 -70 -86 0 -75 -22 -182 -47 -232 -15 -28
-14 -29 9 -22 235 64 454 40 638 -68 180 -105 303 -266 362 -472 31 -111 31
-285 -1 -398 -27 -99 -86 -214 -149 -291 -54 -68 -159 -156 -214 -181 -21 -9
-38 -20 -38 -23 0 -4 16 -15 35 -25 50 -27 122 -107 149 -166 l23 -50 74 52
c194 136 346 351 413 580 147 508 -93 1046 -569 1279 -148 72 -267 100 -445
104 -80 2 -156 2 -170 -1z"/>
<path d="M4658 3962 c-87 -53 -70 -187 28 -221 52 -18 88 -9 131 34 27 27 33
41 33 74 0 81 -49 131 -127 131 -21 0 -50 -8 -65 -18z m136 -38 c52 -52 23
-146 -48 -160 -91 -17 -150 84 -90 155 35 42 98 44 138 5z"/>
<path d="M4706 3865 c-3 -9 1 -18 10 -22 19 -7 39 11 30 26 -10 16 -33 13 -40
-4z"/>
<path d="M7855 3942 c-27 -17 -85 -82 -85 -96 0 -4 24 7 53 24 31 17 68 30 88
30 l34 0 -45 -21 c-57 -26 -112 -68 -105 -80 3 -5 30 -16 60 -25 l55 -15 96
60 c54 34 109 61 123 61 l26 1 -25 14 c-39 23 -178 65 -213 65 -18 0 -46 -8
-62 -18z"/>
<path d="M8197 3726 c-116 -43 -189 -163 -171 -282 10 -69 61 -144 122 -181
130 -77 282 -37 360 95 23 40 27 58 27 122 0 53 -6 85 -19 110 -26 49 -74 98
-121 122 -50 26 -147 33 -198 14z m195 -82 c61 -43 91 -105 85 -175 -8 -93
-71 -164 -163 -183 -71 -15 -174 37 -211 107 -21 41 -21 133 -1 172 58 109
194 147 290 79z"/>
<path d="M8211 3564 c-79 -66 -28 -194 78 -194 47 0 101 55 101 104 0 48 -18
85 -51 102 -44 22 -93 18 -128 -12z"/>
<path d="M3450 3681 c-50 -26 -84 -96 -75 -151 14 -82 98 -141 179 -126 50 9
103 59 116 107 35 128 -101 234 -220 170z m126 -27 c109 -52 69 -214 -52 -214
-39 0 -51 5 -80 34 -26 26 -34 42 -34 70 0 50 23 90 62 109 42 21 62 21 104 1z"/>
<path d="M3502 3578 c-30 -30 3 -77 40 -57 30 16 16 69 -17 69 -6 0 -16 -5
-23 -12z"/>
<path d="M7614 3686 c-32 -14 -54 -50 -73 -121 -13 -47 -15 -96 -3 -78 4 7 46
30 94 52 71 33 87 44 92 68 4 15 9 36 12 46 7 24 -13 22 -72 -8 -27 -14 -51
-25 -53 -25 -12 0 39 45 69 61 l35 18 -35 0 c-19 0 -49 -6 -66 -13z"/>
<path d="M6324 3586 c-227 -52 -417 -222 -485 -436 -30 -91 -37 -261 -15 -355
28 -120 80 -209 176 -306 69 -70 101 -94 170 -128 188 -91 384 -94 568 -6 144
68 251 176 317 320 44 94 58 163 58 270 0 115 -14 178 -69 292 -74 155 -207
272 -376 330 -91 31 -251 40 -344 19z m284 -330 c75 -38 127 -89 161 -157 88
-176 15 -382 -167 -467 -48 -23 -70 -27 -142 -27 -103 1 -171 28 -238 95 -67
68 -95 130 -100 226 -5 94 6 136 55 211 40 61 86 98 162 130 78 33 192 29 269
-11z"/>
<path d="M2775 3471 c33 -20 78 -98 115 -198 12 -35 34 -74 48 -88 28 -28 107
-55 164 -55 l38 0 -36 73 c-20 39 -52 91 -71 115 -37 46 -37 50 6 28 34 -18
68 -61 110 -141 l32 -60 -6 74 c-3 41 -14 93 -24 116 -21 47 -72 91 -122 106
-56 16 -229 49 -258 49 l-26 0 30 -19z"/>
<path d="M4952 3435 c-227 -121 -393 -373 -394 -600 -1 -118 38 -199 124 -257
96 -65 215 -6 168 83 -20 36 -80 18 -80 -23 0 -13 8 -18 25 -18 29 0 33 15 8
29 -16 9 -16 10 4 11 33 0 49 -35 28 -66 -29 -44 -110 -28 -166 33 -53 56 -63
90 -63 198 1 120 16 188 60 276 48 97 112 169 237 265 62 48 114 89 116 90 2
2 2 6 0 8 -2 3 -33 -10 -67 -29z"/>
<path d="M9280 3448 c-50 -34 -69 -66 -85 -143 -19 -91 -19 -197 1 -381 21
-198 17 -234 -36 -341 -56 -113 -130 -190 -215 -223 -86 -33 -260 -38 -502
-15 -206 19 -370 16 -463 -9 -30 -9 -56 -14 -57 -12 -2 2 10 15 27 29 16 14
30 27 30 29 0 2 -27 4 -59 6 -56 3 -62 1 -112 -37 -29 -22 -81 -53 -116 -68
-58 -26 -63 -30 -57 -53 10 -43 20 -45 91 -17 85 34 174 47 329 47 224 0 309
-31 441 -165 45 -45 91 -101 102 -124 28 -54 54 -157 47 -185 -3 -13 -32 -39
-71 -64 -70 -44 -91 -75 -81 -117 8 -32 45 -47 105 -43 38 3 46 6 46 23 0 17
-7 20 -50 20 -43 0 -50 3 -53 21 -4 29 24 60 83 92 40 21 51 33 53 55 3 28 7
25 92 -66 49 -52 112 -109 139 -126 59 -38 181 -66 246 -57 74 12 114 72 84
128 -20 38 -118 69 -163 52 -23 -9 -20 -51 5 -64 25 -14 49 -6 49 15 0 22 23
18 48 -8 30 -32 27 -54 -10 -77 -40 -24 -86 -25 -159 -4 -128 38 -208 118
-329 332 -49 85 -105 170 -134 201 l-51 54 83 -42 c46 -23 133 -72 195 -108
154 -91 331 -175 597 -281 377 -150 561 -202 793 -224 174 -16 325 -2 637 61
135 28 317 64 405 81 270 52 552 147 775 261 131 67 200 89 279 89 60 0 76 -5
175 -55 96 -48 116 -55 168 -55 77 0 121 21 159 77 38 55 46 100 25 140 -24
48 -119 83 -132 49 -3 -8 6 -39 20 -70 29 -64 33 -103 12 -132 -12 -16 -27
-19 -83 -19 -62 0 -78 5 -173 52 -118 58 -191 72 -274 53 -27 -6 -50 -9 -52
-7 -2 2 42 64 97 138 255 338 312 459 312 659 0 160 -35 271 -108 345 -55 55
-91 69 -170 70 -59 0 -77 -4 -118 -28 -30 -18 -60 -47 -78 -75 -46 -73 -36
-132 26 -158 57 -23 102 -18 136 15 35 35 36 44 8 72 -17 17 -29 20 -57 15
-50 -8 -66 8 -47 44 31 59 98 89 171 76 81 -16 166 -140 187 -275 26 -169 -41
-383 -176 -559 -209 -274 -243 -311 -377 -409 -63 -45 -100 -67 -106 -60 -2 2
9 33 25 68 17 35 37 91 46 124 16 63 21 200 9 250 -19 78 -75 148 -133 165
-38 11 -118 2 -128 -13 -4 -6 0 -8 9 -5 27 11 110 -11 146 -38 51 -40 75 -102
75 -199 -1 -169 -84 -326 -209 -392 -160 -85 -470 -169 -820 -222 -265 -40
-512 -52 -521 -25 -2 5 35 32 82 58 47 26 111 68 142 93 142 115 193 211 219
408 16 118 46 199 92 248 149 158 438 175 498 30 24 -56 20 -157 -8 -211 -49
-95 -145 -120 -210 -54 -41 40 -50 110 -19 141 25 25 63 27 81 6 11 -13 9 -21
-9 -46 -26 -36 -21 -47 14 -31 27 13 40 49 31 86 -8 34 -57 50 -100 32 -147
-61 -92 -267 72 -269 62 -1 110 24 150 77 41 55 52 93 53 178 1 138 -72 222
-211 243 -42 6 -146 -6 -188 -22 -23 -10 75 112 128 158 123 106 261 120 329
33 25 -32 26 -55 6 -93 -25 -49 -105 -59 -122 -16 -8 23 12 41 30 26 11 -9 17
-8 26 3 19 22 4 56 -23 56 -29 0 -44 -17 -52 -57 -15 -75 90 -99 149 -33 49
55 28 133 -49 180 -28 18 -52 24 -99 24 -102 0 -135 -23 -358 -243 -109 -108
-206 -209 -214 -226 l-16 -30 -10 25 c-60 148 -143 251 -237 294 -100 47 -202
29 -179 -31 9 -26 26 -30 126 -36 117 -7 182 -57 241 -185 22 -49 27 -74 30
-177 7 -188 -27 -286 -131 -388 -90 -87 -244 -178 -361 -212 -82 -24 -253 -22
-388 5 -287 56 -611 191 -1038 433 -198 112 -333 180 -382 192 -60 15 -22 20
95 12 232 -15 436 10 524 66 81 52 151 146 272 370 54 98 81 130 140 165 38
22 58 27 113 27 72 0 102 -14 142 -69 28 -37 29 -115 2 -145 -26 -28 -33 -27
-41 9 -7 32 -38 60 -68 60 -24 0 -77 -53 -77 -77 0 -27 40 -62 83 -74 44 -12
103 9 131 48 27 36 32 104 12 156 -24 64 -72 105 -137 119 -117 24 -222 -28
-300 -147 l-44 -66 -12 123 c-28 281 -30 324 -21 393 11 86 48 167 83 183 44
20 83 15 101 -13 21 -32 11 -59 -18 -52 -29 8 -48 -9 -48 -43 0 -34 19 -51 59
-52 39 -1 59 16 67 57 20 107 -88 182 -176 123z"/>
<path d="M7831 3414 c-75 -20 -146 -60 -210 -120 l-55 -51 11 -54 c7 -30 14
-72 18 -93 l7 -40 29 54 c35 65 60 92 117 132 61 42 144 68 218 68 l63 0 -19
43 c-11 23 -20 50 -20 60 0 14 -9 17 -52 16 -29 0 -77 -7 -107 -15z"/>
<path d="M5665 3283 c-59 -11 -100 -13 -158 -6 l-78 9 -14 -51 c-39 -140 -48
-346 -21 -487 22 -112 69 -243 87 -241 7 0 43 9 79 18 72 19 167 15 226 -10
19 -8 34 -12 34 -9 0 2 -11 21 -25 42 -119 180 -141 471 -51 692 16 38 20 60
13 59 -7 -1 -48 -8 -92 -16z"/>
<path d="M5030 3276 c-194 -54 -324 -241 -306 -439 3 -38 13 -84 21 -103 12
-29 18 -34 39 -28 31 7 78 -17 96 -50 11 -21 11 -33 2 -63 -11 -35 -10 -40 10
-57 36 -29 120 -65 181 -76 93 -18 238 16 310 72 18 13 18 16 2 73 -10 33 -19
62 -21 64 -2 3 -14 -5 -27 -16 -70 -66 -198 -91 -296 -58 -158 52 -239 243
-169 397 77 167 275 227 425 127 l43 -28 5 27 c4 15 10 44 15 65 10 46 -4 58
-99 87 -71 23 -163 25 -231 6z"/>
<path d="M7887 3250 c-55 -14 -93 -36 -144 -83 -169 -156 -127 -436 82 -537
71 -34 181 -39 256 -11 150 57 244 225 209 374 -17 71 -41 115 -90 166 -76 79
-208 117 -313 91z m162 -158 c158 -80 119 -320 -57 -348 -59 -9 -123 17 -166
68 -77 89 -51 223 52 278 47 24 126 26 171 2z"/>
<path d="M8378 3195 c-3 -3 -30 -9 -61 -13 l-56 -7 29 -44 c42 -61 55 -112 55
-211 0 -75 -4 -93 -32 -152 -93 -198 -323 -277 -520 -181 -62 31 -141 110
-169 170 -22 49 -34 54 -34 16 -1 -16 -7 -54 -15 -87 -13 -55 -13 -60 7 -87
42 -56 135 -119 222 -149 183 -62 381 -15 521 125 151 151 187 376 94 578 -21
45 -29 53 -41 42z"/>
<path d="M4030 3168 c0 -8 27 -45 60 -81 33 -36 60 -68 60 -71 0 -13 -46 18
-96 66 -28 26 -54 48 -57 48 -3 0 3 -22 14 -49 26 -62 76 -110 125 -122 47
-10 234 -12 234 -1 0 4 -15 14 -33 22 -21 10 -49 41 -79 87 -27 40 -59 80 -73
89 -14 9 -54 19 -90 22 -53 4 -65 2 -65 -10z"/>
<path d="M5087 3109 c-57 -13 -91 -34 -131 -80 -46 -54 -59 -96 -54 -174 11
-173 188 -276 343 -200 30 14 67 42 81 60 24 32 25 35 14 116 -5 46 -10 109
-10 141 0 53 -2 58 -37 88 -36 29 -118 61 -152 59 -9 -1 -33 -5 -54 -10z m107
-113 c91 -38 107 -158 30 -225 -29 -26 -43 -31 -84 -31 -111 0 -172 121 -107
214 36 51 100 68 161 42z"/>
<path d="M1610 3087 c-14 -7 -33 -29 -43 -50 -16 -31 -17 -42 -7 -72 30 -92
155 -103 199 -18 21 42 13 83 -23 119 -37 37 -80 44 -126 21z m81 -17 c5 0 18
-9 29 -20 46 -46 8 -140 -58 -140 -37 0 -82 43 -82 79 0 47 52 97 88 85 8 -2
18 -4 23 -4z"/>
<path d="M1650 2996 c0 -9 7 -16 16 -16 9 0 14 5 12 12 -6 18 -28 21 -28 4z"/>
<path d="M1104 2856 c-29 -14 -61 -38 -75 -57 -21 -30 -24 -46 -27 -151 -2
-70 1 -124 7 -135 10 -17 10 -17 11 2 0 33 27 62 105 115 79 53 95 80 95 154
0 76 -11 76 -90 -1 -59 -58 -70 -66 -65 -44 3 14 32 52 63 84 61 62 56 69 -24
33z"/>
<path d="M3785 2770 c-53 -27 -77 -63 -83 -121 -6 -60 10 -100 53 -138 49 -42
104 -49 162 -19 67 33 88 66 88 138 0 44 -5 66 -21 86 -52 70 -128 91 -199 54z
m120 -24 c40 -17 75 -68 75 -109 0 -90 -77 -150 -162 -126 -112 30 -121 188
-14 235 40 17 59 17 101 0z"/>
<path d="M3838 2673 c-23 -6 -34 -49 -18 -68 26 -32 86 -8 78 31 -4 21 -38 42
-60 37z"/>
<path d="M1743 2674 c47 -60 69 -109 64 -138 -3 -20 -4 -20 -14 4 -18 41 -69
106 -102 129 l-30 22 -11 -38 c-30 -108 -31 -108 69 -222 51 -59 92 -116 94
-130 l3 -26 13 30 c24 57 51 178 51 232 0 46 -4 58 -34 91 -19 21 -59 51 -88
67 l-53 29 38 -50z"/>
<path d="M8715 2636 c-38 -20 -95 -54 -125 -76 l-54 -40 50 6 c45 6 59 2 167
-51 106 -52 123 -57 167 -53 48 5 130 47 130 67 0 12 -136 68 -207 85 l-58 14
65 1 c49 0 83 -7 139 -29 41 -16 76 -28 77 -27 5 5 -106 82 -152 106 -74 39
-118 38 -199 -3z"/>
<path d="M5533 2482 c-107 -38 -183 -114 -224 -220 -30 -80 -24 -205 14 -278
69 -135 183 -206 332 -206 105 1 175 30 251 106 84 84 107 147 102 271 -3 79
-8 98 -37 153 -65 120 -167 183 -306 189 -59 3 -93 -1 -132 -15z m235 -119
c81 -38 142 -135 142 -226 0 -101 -83 -213 -179 -241 -68 -20 -94 -20 -157 -1
-180 53 -238 289 -105 423 82 82 188 98 299 45z"/>
<path d="M5565 2331 c-166 -77 -165 -307 2 -386 52 -25 149 -17 197 15 109 74
128 220 43 317 -61 69 -161 92 -242 54z m152 -97 c35 -22 57 -75 49 -116 -13
-71 -105 -118 -166 -86 -40 22 -72 78 -66 117 15 93 106 136 183 85z"/>
<path d="M9236 2451 c73 -27 115 -50 147 -79 37 -35 35 -50 -3 -18 -32 27
-195 85 -206 73 -14 -14 19 -92 51 -123 26 -24 54 -36 127 -54 107 -26 122
-33 162 -69 32 -30 33 -39 -8 101 -42 140 -86 173 -246 183 l-75 5 51 -19z"/>
<path d="M4230 2317 c0 -70 14 -98 62 -123 41 -21 44 -13 8 21 -17 16 -30 34
-30 41 0 7 17 -4 38 -24 l37 -37 3 44 c3 40 0 47 -30 70 -18 14 -43 36 -56 48
-13 13 -25 23 -27 23 -3 0 -5 -28 -5 -63z"/>
<path d="M4547 2370 c-27 -5 -60 -16 -74 -25 -25 -17 -54 -73 -68 -130 l-7
-30 36 40 c19 22 35 43 36 47 0 8 53 38 66 38 3 0 -10 -18 -29 -39 -32 -36
-67 -91 -67 -106 0 -7 94 -6 114 1 9 3 42 43 73 88 32 44 69 91 82 104 l24 22
-69 -1 c-38 -1 -91 -5 -117 -9z"/>
<path d="M7419 2323 c-7 -16 -15 -31 -17 -35 -2 -4 12 -13 30 -21 96 -40 132
-171 71 -256 -30 -42 -101 -73 -151 -68 -55 6 -114 46 -136 91 l-17 36 -35
-26 c-34 -26 -34 -27 -18 -53 56 -88 121 -125 219 -125 83 0 132 21 187 82 44
49 62 100 62 173 -1 75 -43 151 -109 196 -57 40 -68 41 -86 6z"/>
<path d="M3410 2336 c0 -3 20 -34 45 -67 25 -34 47 -71 50 -83 17 -86 9 -100
-19 -36 -10 23 -43 68 -74 101 -64 70 -65 70 -87 -47 l-15 -76 86 -105 c97
-119 124 -159 124 -188 1 -59 55 121 70 231 11 88 0 132 -45 183 -30 33 -135
101 -135 87z"/>
<path d="M10300 2281 c-41 -16 -104 -42 -140 -59 -63 -29 -64 -30 -30 -31 48
-2 101 -28 195 -95 78 -57 81 -58 136 -54 56 4 152 43 151 62 0 15 -129 85
-179 99 -59 15 -54 31 8 25 34 -4 79 -20 130 -46 44 -23 79 -39 79 -35 0 16
-90 110 -129 135 -59 37 -120 37 -221 -1z"/>
<path d="M6020 2298 c0 -1 7 -25 15 -52 21 -67 19 -152 -5 -227 -10 -35 -18
-64 -17 -65 4 -4 189 -64 196 -64 5 0 12 21 16 47 11 73 42 145 81 192 20 23
35 44 33 45 -2 2 -33 11 -69 20 -36 9 -103 35 -150 59 -101 50 -100 50 -100
45z"/>
<path d="M8940 2287 c-93 -32 -107 -167 -23 -222 32 -21 98 -24 131 -6 33 17
62 70 62 111 0 39 -29 93 -57 108 -33 18 -78 21 -113 9z m90 -32 c105 -54 35
-211 -77 -174 -57 18 -82 100 -45 145 36 45 74 54 122 29z"/>
<path d="M8963 2203 c-21 -8 -16 -61 6 -68 40 -12 70 20 51 56 -10 18 -31 23
-57 12z"/>
<path d="M6535 2237 c-102 -34 -180 -100 -228 -192 -30 -56 -32 -67 -32 -160
0 -82 4 -109 22 -148 31 -66 115 -152 182 -184 50 -25 67 -28 156 -28 93 0
104 2 160 32 77 40 137 102 172 178 24 52 28 72 28 150 0 82 -3 97 -32 156
-62 125 -175 200 -313 206 -44 2 -91 -3 -115 -10z m179 -119 c58 -17 141 -102
156 -159 15 -54 8 -145 -14 -187 -86 -167 -332 -178 -430 -19 -50 81 -49 190
2 265 65 97 171 134 286 100z"/>
<path d="M6548 2050 c-106 -56 -132 -201 -52 -290 113 -125 324 -45 324 123 0
50 -24 110 -56 138 -59 51 -150 63 -216 29z m120 -132 c28 -28 7 -78 -33 -78
-27 0 -45 18 -45 45 0 27 18 45 45 45 12 0 26 -5 33 -12z"/>
<path d="M7301 2170 c-71 -79 -74 -99 -22 -151 38 -38 90 -46 137 -23 74 37
98 115 58 182 -17 30 -67 62 -96 62 -8 0 -42 -32 -77 -70z m94 -54 c0 -30 -31
-44 -51 -24 -15 14 -15 20 -4 33 18 21 55 15 55 -9z"/>
<path d="M7940 2191 c-93 -30 -172 -97 -217 -183 -25 -47 -28 -63 -28 -148 0
-85 3 -101 28 -148 35 -67 92 -124 159 -159 47 -25 64 -28 148 -28 89 0 99 2
158 34 70 38 115 85 152 158 21 41 25 62 25 143 0 110 -20 163 -91 236 -65 67
-134 97 -229 100 -44 2 -91 0 -105 -5z m164 -103 c55 -16 138 -99 154 -154 56
-189 -113 -358 -302 -302 -55 16 -138 99 -154 154 -17 59 -15 112 9 164 27 60
64 98 124 126 56 26 107 30 169 12z"/>
<path d="M7984 2061 c-134 -33 -200 -186 -130 -305 45 -77 141 -119 223 -97
137 37 200 184 130 303 -44 76 -141 119 -223 99z m122 -125 c28 -28 34 -42 34
-76 0 -34 -6 -48 -34 -76 -28 -28 -42 -34 -76 -34 -34 0 -48 6 -76 34 -28 28
-34 42 -34 76 0 34 6 48 34 76 28 28 42 34 76 34 34 0 48 -6 76 -34z"/>
<path d="M4226 2139 c-174 -27 -251 -217 -105 -260 31 -10 43 -9 76 7 31 16
39 25 41 52 2 22 -3 41 -14 53 -35 38 -97 13 -74 -30 12 -23 25 -27 35 -11 3
6 13 10 21 10 22 0 17 -37 -8 -54 -55 -38 -128 -2 -128 63 0 81 80 134 200
135 138 1 233 -63 362 -245 35 -49 83 -125 108 -170 25 -45 50 -81 55 -82 5 0
14 7 19 16 12 19 -38 138 -97 227 -48 75 -162 191 -226 232 -76 48 -180 70
-265 57z"/>
<path d="M5153 2071 c-151 -72 -236 -190 -267 -373 l-7 -37 32 13 c24 10 36
24 44 52 18 60 41 98 79 131 50 44 95 56 196 51 l87 -4 -28 52 c-15 29 -30 75
-34 103 -4 28 -10 51 -13 51 -4 0 -44 -18 -89 -39z"/>
<path d="M9732 2049 c-59 -11 -102 -38 -130 -79 -23 -35 -68 -167 -59 -176 2
-3 18 19 35 49 31 55 104 127 130 127 7 0 -1 -12 -18 -26 -28 -24 -120 -167
-120 -186 0 -12 61 -8 103 6 56 21 74 41 122 141 41 86 66 119 110 143 16 9 5
11 -55 11 -41 -1 -95 -5 -118 -10z"/>
<path d="M2126 1970 c14 -81 37 -157 55 -186 24 -39 74 -64 126 -64 l38 1 -35
19 c-91 50 -110 90 -21 46 70 -36 85 -35 77 6 -12 59 -46 96 -116 124 -36 14
-80 40 -98 57 l-32 31 6 -34z"/>
<path d="M12172 1923 c-59 -29 -80 -105 -45 -164 18 -31 67 -59 103 -59 55 0
120 65 120 121 0 14 -10 41 -23 60 -39 58 -93 73 -155 42z m98 -18 c36 -19 50
-43 50 -87 0 -44 -22 -74 -64 -88 -41 -13 -75 -2 -105 36 -27 34 -27 74 0 108
36 45 73 55 119 31z"/>
<path d="M12200 1845 c-26 -32 13 -81 48 -59 34 22 22 74 -18 74 -10 0 -23 -7
-30 -15z"/>
<path d="M10734 1896 c-30 -30 -34 -40 -34 -84 0 -39 6 -57 25 -81 51 -59 131
-64 185 -10 54 55 49 133 -12 184 -23 19 -41 25 -80 25 -44 0 -54 -4 -84 -34z
m144 -13 c24 -15 42 -51 42 -85 0 -11 -16 -36 -35 -55 -32 -32 -40 -35 -73
-30 -48 8 -82 46 -82 93 0 47 15 73 53 89 34 15 58 12 95 -12z"/>
<path d="M10807 1823 c-14 -13 -6 -33 13 -33 13 0 20 7 20 20 0 19 -20 27 -33
13z"/>
<path d="M5985 1876 c-98 -44 -139 -161 -90 -257 41 -79 159 -113 243 -70 166
84 100 343 -86 341 -20 -1 -50 -7 -67 -14z m118 -40 c54 -22 87 -70 87 -124 0
-84 -56 -142 -137 -142 -76 0 -136 63 -135 142 1 52 28 94 77 118 47 24 65 25
108 6z"/>
<path d="M6029 1756 c-48 -23 -28 -106 26 -106 44 0 70 57 43 92 -19 23 -42
28 -69 14z"/>
<path d="M2800 1752 c82 -80 82 -114 -1 -38 -81 76 -93 74 -87 -9 3 -36 12
-72 19 -81 7 -9 46 -39 87 -66 40 -27 78 -61 85 -75 10 -22 12 -23 18 -6 12
29 10 167 -2 204 -16 48 -46 78 -104 105 -77 36 -80 29 -15 -34z"/>
<path d="M4350 1694 c-52 -47 -108 -92 -123 -98 -27 -12 -26 -13 45 -29 172
-39 234 -32 287 29 30 34 76 114 66 114 -3 0 -30 -20 -60 -45 -54 -44 -92 -61
-116 -53 -7 2 8 16 33 31 44 25 108 89 108 106 0 5 -19 12 -42 16 -24 3 -56 8
-73 11 -26 4 -41 -6 -125 -82z"/>
<path d="M5610 1674 c-49 -42 -74 -99 -74 -174 0 -115 66 -215 177 -270 92
-45 161 -57 247 -42 158 27 281 93 407 217 46 45 83 79 83 76 0 -15 -133 -172
-186 -220 -111 -102 -250 -181 -389 -222 -148 -42 -338 -35 -544 23 -94 26
-141 29 -141 9 0 -18 218 -95 313 -111 292 -47 649 72 859 287 70 72 178 216
178 238 0 8 -16 19 -36 25 l-36 12 -102 -100 c-91 -90 -113 -106 -211 -154
-106 -52 -112 -53 -196 -53 -79 0 -90 2 -113 24 -34 32 -33 58 4 79 32 18 39
39 15 48 -22 9 -61 -20 -69 -50 -9 -36 9 -73 46 -96 39 -24 21 -26 -50 -5 -69
21 -122 71 -122 116 0 48 21 73 90 110 62 33 78 62 41 74 -47 15 -142 -61
-156 -124 -3 -16 -2 -46 4 -66 8 -31 8 -35 -4 -25 -26 21 -65 114 -65 152 0
50 19 85 80 154 54 58 56 64 38 82 -19 19 -54 14 -88 -14z"/>
<path d="M4942 1656 c-159 -52 -251 -235 -194 -385 l17 -45 58 0 c31 -1 56 1
54 4 -57 95 -61 182 -11 252 108 153 349 95 371 -89 15 -132 -102 -249 -228
-229 l-37 6 18 -38 c11 -20 22 -45 24 -55 5 -16 13 -17 53 -12 107 16 203 85
244 178 32 74 32 183 -1 251 -29 61 -86 117 -147 147 -57 27 -161 34 -221 15z"/>
<path d="M11345 1601 c74 -25 163 -78 183 -109 15 -23 13 -22 -31 6 -50 31
-213 89 -223 79 -8 -8 22 -97 42 -125 22 -31 77 -57 164 -76 104 -23 130 -34
171 -73 l36 -34 -23 85 c-56 212 -98 249 -294 261 l-85 6 60 -20z"/>
<path d="M11084 1589 c-17 -5 -38 -17 -48 -27 -20 -23 -51 -109 -64 -179 l-9
-52 22 17 c13 10 53 31 91 47 38 15 77 35 86 43 15 12 48 91 48 114 0 15 -35
8 -79 -17 -52 -30 -55 -30 -41 -5 6 11 32 31 58 45 l47 24 -40 0 c-22 -1 -54
-5 -71 -10z"/>
<path d="M9528 1560 c-68 -9 -115 -35 -145 -80 -22 -32 -85 -211 -78 -219 2
-2 11 4 20 13 35 34 77 46 198 56 131 11 175 20 213 45 27 18 64 84 64 116 0
21 -3 21 -57 15 -99 -12 -207 -37 -240 -56 -32 -19 -33 -19 -20 1 19 32 105
68 192 80 102 15 118 29 33 29 -36 0 -78 2 -94 4 -16 2 -54 1 -86 -4z"/>
<path d="M4949 1496 c-68 -47 -90 -143 -46 -206 37 -55 72 -75 132 -75 60 0
95 19 133 76 47 68 12 183 -64 215 -52 22 -114 18 -155 -10z m119 -134 c-2
-23 -8 -27 -33 -27 -24 0 -31 5 -33 24 -5 32 23 54 50 40 13 -7 18 -19 16 -37z"/>
<path d="M2010 1497 c0 -2 23 -18 50 -35 65 -40 65 -60 0 -27 -71 36 -84 34
-77 -12 10 -57 37 -85 112 -116 38 -15 78 -35 88 -45 19 -17 20 -16 13 48 -8
72 -37 134 -76 161 -23 16 -110 37 -110 26z"/>
<path d="M1848 1453 c-35 -22 -58 -79 -58 -146 0 -61 14 -92 25 -58 3 12 25
34 46 48 44 29 69 68 69 107 0 37 -17 41 -55 11 -43 -32 -44 -26 -4 20 33 38
23 46 -23 18z"/>
<path d="M4770 1199 c-61 -24 -100 -85 -100 -154 0 -147 168 -219 271 -116 46
46 64 105 49 159 -13 47 -26 63 -74 96 -41 28 -99 34 -146 15z m131 -52 c19
-13 40 -39 48 -61 13 -33 13 -44 0 -79 -46 -134 -242 -103 -242 38 0 102 109
159 194 102z"/>
<path d="M4802 1078 c-16 -16 -15 -53 3 -68 19 -16 45 -10 61 15 26 39 -31 86
-64 53z"/>
</g>
</svg>
