<svg xmlns="http://www.w3.org/2000/svg" viewBox="0 0 196.444 23.162"><defs><style>.a{fill:#434040}</style></defs><path class="a" d="M.497 5.272s.19.327.61.944a25.511 25.511 0 002.045 2.577 18.992 18.992 0 004.005 3.415 10.322 10.322 0 006.672 1.714c.319-.044.67-.06.973-.127l1.031-.252a7.717 7.717 0 00.992-.33 5.063 5.063 0 00.953-.44 2.908 2.908 0 001.413-1.41 2.012 2.012 0 00-.316-1.907 3.779 3.779 0 00-1.756-1.359 2.028 2.028 0 00-1.042-.107 1.278 1.278 0 00-.627.674 5.427 5.427 0 00.606 4.85 8.896 8.896 0 004.277 3.449 18.167 18.167 0 005.9 1.25 13.261 13.261 0 006.21-.887 10.178 10.178 0 004.825-4.306 13.22 13.22 0 001.78-6.607 9.719 9.719 0 00-.571-3.458C38.063 1.899 37.3.85 36.22.793a2.925 2.925 0 00-2.67 1.708 8.44 8.44 0 00-.905 3.548 13.711 13.711 0 001.655 7.4 7.183 7.183 0 002.616 2.741 5.444 5.444 0 003.707.572 51.54 51.54 0 007.988-2.132c1.332-.443 2.664-.93 4.088-1.27a7.039 7.039 0 014.53.169 6.518 6.518 0 011.05.624 4.713 4.713 0 01.855.8 3.134 3.134 0 01.768 2.477 3.54 3.54 0 01-1.326 2.213 4.091 4.091 0 01-2.39.913 3.279 3.279 0 01-1.335-.219l-.163-.057a1.37 1.37 0 01-.183-.096 1.548 1.548 0 01-.3-.204 1.854 1.854 0 01-.53-.67 3.431 3.431 0 01.08-2.696 8.217 8.217 0 013.086-3.65 9.257 9.257 0 014.505-1.556 10.198 10.198 0 012.412.116l1.103.208 1.149.293a16.131 16.131 0 014.29 1.927 9.704 9.704 0 011.852 1.575 3.566 3.566 0 011.069 2.487c-.032 1.233-1.416 1.84-2.149 1.863a2.464 2.464 0 01-2.419-1.521 2.7 2.7 0 01.316-2.776 3.756 3.756 0 012.36-1.223l.626-.089c.206-.01.41-.004.615-.007l.621.004.575.044c.758.05 1.546.139 2.31.214 1.534.163 3.058.33 4.586.462a39.565 39.565 0 009.123-.069 11.573 11.573 0 007.745-3.977c.251-.291.408-.584.621-.874a5.275 5.275 0 00.427-.935 1.522 1.522 0 00-.304-1.659 2.846 2.846 0 00-1.824-.667 4.094 4.094 0 00-2.015.394 2.29 2.29 0 00-.754.58 4.096 4.096 0 00-.327.464l-.227.445a7.989 7.989 0 00-.585 2.113 8.326 8.326 0 00.497 4.35c1.117 2.775 4.118 4.314 7.105 4.534a15.084 15.084 0 004.511-.132 13.864 13.864 0 004.21-1.544 10.38 10.38 0 003.297-2.89 5.93 5.93 0 00.92-1.89 3.37 3.37 0 00-.108-1.939 4.102 4.102 0 00-.486-.821l-.185-.21-.148-.128a.947.947 0 00-.278-.154.104.104 0 00-.069.008.575.575 0 00-.104.193 1.617 1.617 0 00-.005.814 2.854 2.854 0 001.002 1.532 4.193 4.193 0 001.8.792 9.925 9.925 0 004.229-.262c1.394-.359 2.846-.877 4.272-1.32a161.43 161.43 0 014.31-1.324c.736-.186 1.435-.432 2.2-.567l1.13-.228 1.202-.074a8.678 8.678 0 011.237.185 10.69 10.69 0 011.113.469l.5.271.25.136a1.47 1.47 0 01.173.11l.11.082a2.522 2.522 0 01.886 1.02 3.086 3.086 0 01-.078 2.573 4.841 4.841 0 01-1.536 1.89 4.058 4.058 0 01-2.316.826 3.577 3.577 0 01-1.283-.215 1.77 1.77 0 01-.276-.134 1.333 1.333 0 01-.35-.287 1.226 1.226 0 01-.31-.833 2.238 2.238 0 01.51-1.276 5.703 5.703 0 01.807-.863 10.776 10.776 0 011.841-1.3 13.512 13.512 0 018.496-1.748 8.745 8.745 0 012.12.592 8.926 8.926 0 011.943 1.003 4.983 4.983 0 011.555 1.653 3.387 3.387 0 01.308 2.314 3.696 3.696 0 01-1.196 1.963 2.939 2.939 0 01-1.033.59 1.687 1.687 0 01-.627.108l-.164.006a.92.92 0 01-.196-.031l-.248-.056a1.417 1.417 0 01-.954-1.113 1.848 1.848 0 01.342-1.267 3.83 3.83 0 011.839-1.289c2.741-.946 5.53-.401 8.058.013a34.114 34.114 0 007.5.603 6.45 6.45 0 003.243-1.004 4.783 4.783 0 001.803-2.63l.125-.437c.032-.136.024-.237.041-.356a2.934 2.934 0 00-.01-.704 2.02 2.02 0 00-.68-1.136 2.842 2.842 0 00-2.694-.428 1.837 1.837 0 00-.54.32 1.28 1.28 0 01-.164.17c-.031.058-.08.135-.097.179a.194.194 0 01-.019.075 3.53 3.53 0 00.001 1.409 9.276 9.276 0 001.115 2.943 8.978 8.978 0 004.49 3.987 8.67 8.67 0 005.74-.038 5.503 5.503 0 003.918-3.274 4.069 4.069 0 00-.007-2.433 2.853 2.853 0 00-1.286-1.755.998.998 0 01-.186-.058c.099 0-.02.001-.02.002l-.083.002c-.08-.003-.032.02-.055.018a.698.698 0 00-.285.207 2.037 2.037 0 00-.433.926 3.647 3.647 0 00.218 2.167 5.501 5.501 0 003.137 2.84 13.211 13.211 0 004.044.867l.985.044.96-.018.951-.017.89-.096.86-.095.827-.176a9.74 9.74 0 001.543-.422 11.26 11.26 0 004.427-2.669 10.02 10.02 0 001.884-2.61 5.904 5.904 0 00.411-1.008.266.266 0 01.518.127l-.002.005a6.545 6.545 0 01-.424 1.116 10.616 10.616 0 01-1.939 2.81 11.94 11.94 0 01-4.628 2.93 10.39 10.39 0 01-1.617.479l-.864.203-.916.122-.945.119-.951.036-1 .034-1.027-.037a14.087 14.087 0 01-4.336-.892 6.432 6.432 0 01-3.68-3.32 4.621 4.621 0 01-.293-2.75 2.99 2.99 0 01.655-1.386 1.637 1.637 0 01.785-.515 1.336 1.336 0 01.266-.05l.083-.003a.91.91 0 01.145.001c.152.033.304.072.454.117a2.862 2.862 0 011.24 1.028 3.18 3.18 0 01.395.656 3.62 3.62 0 01.286.705 5.079 5.079 0 01-1.777 5.652 8.81 8.81 0 01-1.335.868c-.491.196-1.006.447-1.494.591a9.828 9.828 0 01-6.451.066 10.197 10.197 0 01-5.16-4.47 10.53 10.53 0 01-1.3-3.353 4.654 4.654 0 01.019-2.008c.037-.113.08-.224.128-.333.042-.087.073-.132.111-.2a3.447 3.447 0 01.415-.477 3.106 3.106 0 01.949-.567 4.1 4.1 0 013.98.657 3.304 3.304 0 011.108 1.889 4.162 4.162 0 01.015 1.097c-.025.179-.042.384-.082.54l-.13.436a7.31 7.31 0 01-.875 1.817 5.484 5.484 0 01-1.466 1.446 7.592 7.592 0 01-3.832 1.137 35.014 35.014 0 01-7.755-.73 31.992 31.992 0 00-3.825-.56 9.82 9.82 0 00-3.749.388 2.933 2.933 0 00-1.418.962.982.982 0 00-.192.634.586.586 0 00.273.373c1.005.308 2.148-.811 2.379-1.911a2.463 2.463 0 00-.23-1.682 4.098 4.098 0 00-1.277-1.33 7.932 7.932 0 00-1.761-.896 7.789 7.789 0 00-1.916-.529 12.47 12.47 0 00-7.867 1.67 9.841 9.841 0 00-1.663 1.191 4.718 4.718 0 00-.663.717 1.325 1.325 0 00-.31.692c.015.072.007.113.062.156.01.034.049.03.063.059.01.024.146.068.212.1a2.792 2.792 0 00.853.122 3.023 3.023 0 001.714-.638 3.8 3.8 0 001.187-1.48 2.031 2.031 0 00.075-1.68.913.913 0 00-.194-.3c-.027-.086-.214-.202-.358-.307l-.113-.08c-.085-.06-.008-.012-.06-.039l-.237-.126-.474-.253c-.317-.175-.621-.25-.93-.387a8.803 8.803 0 00-.953-.132l-1.016.073-1.053.222c-.7.128-1.412.384-2.119.57-1.417.423-2.835.884-4.26 1.353-1.437.46-2.819.98-4.35 1.371a11.092 11.092 0 01-4.764.276 5.414 5.414 0 01-2.327-1.037 3.865 3.865 0 01-1.406-2.246 2.76 2.76 0 01.074-1.447 1.593 1.593 0 01.53-.74 1.263 1.263 0 011.024-.181 2.008 2.008 0 01.72.391l.274.26.19.226a3.493 3.493 0 01.362.563 2.39 2.39 0 01.29.594 4.421 4.421 0 01.09 2.583 6.92 6.92 0 01-1.131 2.203 11.284 11.284 0 01-3.68 3.045 15.61 15.61 0 01-9.209 1.722 5.965 5.965 0 01-1.18-.173l-1.173-.248a10.979 10.979 0 01-2.222-.96 7.52 7.52 0 01-3.22-3.597 9.296 9.296 0 01-.596-4.797 8.845 8.845 0 01.632-2.375l.305-.593a4.762 4.762 0 01.338-.492A3.184 3.184 0 0194 6.364a5.035 5.035 0 012.501-.53 3.789 3.789 0 012.467.915 2.55 2.55 0 01.601 2.665 6.263 6.263 0 01-.518 1.187c-.237.343-.466.733-.719 1.033l-.762.882-.944.838a6.667 6.667 0 01-1.005.702 5.888 5.888 0 01-1.067.59 15.729 15.729 0 01-4.599 1.363 40.629 40.629 0 01-9.387.11c-1.545-.127-3.084-.29-4.608-.446a20.05 20.05 0 00-4.425-.161 2.628 2.628 0 00-1.641.805 1.505 1.505 0 00-.157 1.546 1.287 1.287 0 001.17.81c.056.048.304-.057.468-.1l.137-.04c-.12.036.014-.022.008-.028l.168-.1c.12-.062.138-.161.23-.224-.003-.103.096-.153.064-.276a2.484 2.484 0 00-.78-1.529 8.458 8.458 0 00-1.612-1.33 14.996 14.996 0 00-3.945-1.708l-1.03-.26-1.106-.203a8.874 8.874 0 00-2.054-.086 7.856 7.856 0 00-3.825 1.341 7.13 7.13 0 00-2.564 3.005 2.17 2.17 0 00-.157 1.577c.035.262.71.539 1.242.51a2.7 2.7 0 002.529-1.984 1.925 1.925 0 00-.439-1.527 2.451 2.451 0 00-.286-.336l-.409-.351a5.918 5.918 0 00-.782-.492 6.01 6.01 0 00-3.857-.216c-1.346.281-2.69.713-4.029 1.13a54.605 54.605 0 01-8.12 2.05 6.206 6.206 0 01-4.21-.65 7.925 7.925 0 01-2.905-3.016 14.456 14.456 0 01-1.773-7.827 9.208 9.208 0 01.995-3.883 4.246 4.246 0 011.38-1.553 3.348 3.348 0 012.038-.563 2.847 2.847 0 011.893.949 5.346 5.346 0 011.046 1.71 10.549 10.549 0 01.64 3.75 14.038 14.038 0 01-1.866 7.034 11.042 11.042 0 01-5.205 4.678 11.478 11.478 0 01-3.309.895l-.848.095-.81.023-.403.011c-.173.004-.282-.007-.427-.01l-.812-.03a18.56 18.56 0 01-6.202-1.307 9.78 9.78 0 01-4.67-3.837 6.228 6.228 0 01-.608-5.673 1.986 1.986 0 011.2-1.11 2.822 2.822 0 011.495.144 4.572 4.572 0 012.142 1.68 2.81 2.81 0 01.384 2.645 3.653 3.653 0 01-1.764 1.793 5.804 5.804 0 01-1.07.486 8.865 8.865 0 01-1.074.348l-1.033.246c-.379.081-.722.091-1.077.138a10.917 10.917 0 01-7.11-1.876 19.603 19.603 0 01-4.09-3.592A26.072 26.072 0 01.65 6.524a19.9 19.9 0 01-.614-.984.267.267 0 01.096-.365.272.272 0 01.365.097z"/><path class="a" d="M90.993 18.426a.62.62 0 000 1.24.62.62 0 000-1.24zm2.361 1.784a.752.752 0 000 1.502.752.752 0 000-1.503zm3.939 1.49c-.708-.54-1.555.607-.942 1.22.784.783 1.855-.528.942-1.22zm29.682-14.706a.504.504 0 00-.984.133.835.835 0 00.964.923.154.154 0 00.146-.19 3.363 3.363 0 00-.126-.866zm2.118-1.174c-1.004.019-.663 1.645-.259 2.103a.538.538 0 00.756 0c.492-.564.569-2.126-.497-2.104zm2.745.194c-.535.438-.732 1.509.097 1.765L132 7.8a.875.875 0 00.853-.224 1.113 1.113 0 00.38-.983.828.828 0 00-1.396-.58zm-74.86 3.107a.698.698 0 00-1.183.489.891.891 0 00.662.921c.28.063.763.05.832-.327a1.15 1.15 0 00-.311-1.083zm1.235-1.292c-1.108.62.023 2.932 1.032 2.141.878-.686.178-2.821-1.032-2.141zm5.342-.296a.935.935 0 00-1.55-.408 4.47 4.47 0 00-.652 1.203A1.035 1.035 0 0063.14 9.37a2.29 2.29 0 00.415-1.838z"/></svg>